<svg width="25" height="24" viewBox="0 0 25 24" fill="none" xmlns="http://www.w3.org/2000/svg">
<path d="M8.375 2V5" stroke="black" stroke-miterlimit="10" stroke-linecap="round" stroke-linejoin="round"/>
<path d="M16.375 2V5" stroke="black" stroke-miterlimit="10" stroke-linecap="round" stroke-linejoin="round"/>
<path d="M3.875 9.08997H20.875" stroke="black" stroke-miterlimit="10" stroke-linecap="round" stroke-linejoin="round"/>
<path d="M22.375 19C22.375 19.75 22.165 20.46 21.795 21.06C21.105 22.22 19.835 23 18.375 23C17.365 23 16.445 22.63 15.745 22C15.435 21.74 15.165 21.42 14.955 21.06C14.585 20.46 14.375 19.75 14.375 19C14.375 16.79 16.165 15 18.375 15C19.575 15 20.645 15.53 21.375 16.36C21.995 17.07 22.375 17.99 22.375 19Z" stroke="black" stroke-miterlimit="10" stroke-linecap="round" stroke-linejoin="round"/>
<path d="M16.8149 19L17.8049 19.99L19.9349 18.02" stroke="black" stroke-linecap="round" stroke-linejoin="round"/>
<path d="M21.375 8.5V16.36C20.645 15.53 19.575 15 18.375 15C16.165 15 14.375 16.79 14.375 19C14.375 19.75 14.585 20.46 14.955 21.06C15.165 21.42 15.435 21.74 15.745 22H8.375C4.875 22 3.375 20 3.375 17V8.5C3.375 5.5 4.875 3.5 8.375 3.5H16.375C19.875 3.5 21.375 5.5 21.375 8.5Z" stroke="black" stroke-miterlimit="10" stroke-linecap="round" stroke-linejoin="round"/>
<path d="M12.3705 13.7H12.3795" stroke="black" stroke-width="1.5" stroke-linecap="round" stroke-linejoin="round"/>
<path d="M8.66931 13.7H8.67829" stroke="black" stroke-width="1.5" stroke-linecap="round" stroke-linejoin="round"/>
<path d="M8.66931 16.7H8.67829" stroke="black" stroke-width="1.5" stroke-linecap="round" stroke-linejoin="round"/>
</svg>
