<svg xmlns="http://www.w3.org/2000/svg" width="25" height="24" fill="none" viewBox="0 0 25 24">
  <path stroke="#000" stroke-linecap="round" stroke-linejoin="round" stroke-miterlimit="10" d="M8.375 2v3m8-3v3m-12.5 4.09h17m1.5 9.91c0 .75-.21 1.46-.58 2.06a3.97 3.97 0 0 1-3.42 1.94c-1.01 0-1.93-.37-2.63-1-.31-.26-.58-.58-.79-.94a3.92 3.92 0 0 1-.58-2.06c0-2.21 1.79-4 4-4 1.2 0 2.27.53 3 1.36a4 4 0 0 1 1 2.64Z"/>
  <path stroke="#000" stroke-linecap="round" stroke-linejoin="round" d="m16.815 19 .99.99 2.13-1.97"/>
  <path stroke="#000" stroke-linecap="round" stroke-linejoin="round" stroke-miterlimit="10" d="M21.375 8.5v7.86c-.73-.83-1.8-1.36-3-1.36-2.21 0-4 1.79-4 4 0 .75.21 1.46.58 2.06.21.36.48.68.79.94h-7.37c-3.5 0-5-2-5-5V8.5c0-3 1.5-5 5-5h8c3.5 0 5 2 5 5Z"/>
  <path stroke="#000" stroke-linecap="round" stroke-linejoin="round" stroke-width="1.5" d="M12.37 13.7h.01m-3.71 0h.008m-.008 3h.008"/>
</svg>
