<svg xmlns="http://www.w3.org/2000/svg" width="16" height="16" fill="none" viewBox="0 0 16 16">
  <path fill="#BF1B2C" d="M14.647 12.22c0 .24-.053.487-.167.727a2.75 2.75 0 0 1-.453.68c-.327.36-.687.62-1.093.786-.4.167-.834.254-1.3.254-.68 0-1.407-.16-2.174-.487a11.703 11.703 0 0 1-2.293-1.32 19.173 19.173 0 0 1-2.187-1.867 18.95 18.95 0 0 1-1.86-2.18c-.546-.76-.986-1.52-1.307-2.273-.32-.76-.48-1.487-.48-2.18 0-.453.08-.887.24-1.287.16-.406.414-.78.767-1.113.427-.42.893-.627 1.387-.627.187 0 .373.04.54.12.173.08.326.2.446.374l1.547 2.18c.12.166.207.32.267.466.06.14.093.28.093.407 0 .16-.046.32-.14.473a2.267 2.267 0 0 1-.373.474l-.507.526a.357.357 0 0 0-.106.267c0 .053.006.1.02.153.02.054.04.094.053.134.12.22.327.506.62.853.3.347.62.7.966 1.053.36.354.707.68 1.06.98.347.294.634.494.86.614.034.013.074.033.12.053a.46.46 0 0 0 .167.027c.114 0 .2-.04.274-.114l.506-.5c.167-.166.327-.293.48-.373a.887.887 0 0 1 .474-.14c.126 0 .26.027.406.087.147.06.3.146.467.26l2.207 1.566c.173.12.293.26.366.427.067.167.107.333.107.52Z"/>
</svg>
