<svg xmlns="http://www.w3.org/2000/svg" width="25" height="24" fill="none" viewBox="0 0 25 24">
  <path stroke="#BF1B2C" stroke-linecap="round" stroke-linejoin="round" stroke-width="1.5" d="M7.01 22h10.48c2.76 0 3.86-1.69 3.99-3.75L22 9.99A3.753 3.753 0 0 0 18.25 6c-.61 0-1.17-.35-1.45-.89l-.72-1.45C15.62 2.75 14.42 2 13.4 2h-2.29c-1.03 0-2.23.75-2.69 1.66L7.7 5.11c-.28.54-.84.89-1.45.89C4.08 6 2.36 7.83 2.5 9.99l.52 8.26C3.14 20.31 4.25 22 7.01 22Zm3.74-14h3"/>
  <path stroke="#BF1B2C" stroke-linecap="round" stroke-linejoin="round" stroke-width="1.5" d="M12.25 18c1.79 0 3.25-1.46 3.25-3.25s-1.46-3.25-3.25-3.25S9 12.96 9 14.75 10.46 18 12.25 18Z"/>
</svg>
