<svg xmlns="http://www.w3.org/2000/svg" width="14" height="13" fill="none" viewBox="0 0 14 13">
  <path stroke="#000" stroke-linecap="round" stroke-linejoin="round" stroke-opacity=".5" d="M4.905 6.837c-1.659-1.24-2.841-2.604-3.487-3.371-.2-.238-.265-.411-.304-.717C.979 1.7.91 1.177 1.219.839 1.526.5 2.069.5 3.156.5h7.688c1.087 0 1.63 0 1.937.338.308.339.24.863.105 1.91-.039.307-.104.48-.304.718-.647.768-1.831 2.134-3.494 3.376a.7.7 0 0 0-.268.499c-.164 1.82-.316 2.817-.41 3.322-.153.814-1.308 1.304-1.926 1.741-.368.26-.814-.05-.862-.452a130.95 130.95 0 0 1-.45-4.611.7.7 0 0 0-.267-.504Z"/>
</svg>
