<svg xmlns="http://www.w3.org/2000/svg" width="138" height="125" fill="none" viewBox="0 0 138 125">
  <path fill="#BF1B2C" d="M137.131 18.903c-16.014 5.113-36.261 19.58-37.034 20.117 17.247-8.002 28.622-9.855 35.653-9.707a65.428 65.428 0 0 1-4.086 13.078c-10.952.204-27.26.815-33.39 2.63 0 0 17.634-.444 28.383 6.799a64.478 64.478 0 0 1-5.062 6.853c-11.872-4.779-28.07-6.094-28.07-6.094 11.744 3.464 18.591 7.891 22.549 11.93a71.708 71.708 0 0 1-9.057 7.297l-16.51-11.762c4.565 4.835 8.062 10.614 10.492 15.467-3.976 2.167-6.608 3.112-6.608 3.112-7.51-5.724-21.48-1.815-21.48-1.815C88.96 59.099 88.96 31.74 88.96 31.74c31.051-8.335 47.617-29.434 47.617-29.434.737 5.946.884 11.466.553 16.597Z"/>
  <path fill="#fff" d="M132.529 11.68c-10.805 11.261-24.922 19.134-39.795 23.58l.608-.89c-.093 6.743-2.412 12.948-4.933 19.043-.884 1.982-1.804 3.945-2.817 5.853.737-2.038 1.51-4.057 2.19-6.094 1.97-6.206 4.105-12.819 3.83-19.339 14.853-4.723 28.879-12.17 40.917-22.154Z"/>
  <path fill="#000" d="M69.928 124.339V87.755s3.369 5.076 7.64 16.023c0 0-2.596-13.67-7.64-21.617 0 0 22.788 11.596 18.628 28.915 0 0-8.54-14.855-12.425-19.023 0 0 8.799 17.968 2.338 22.524L72.91 99.332s5.172 19.413-2.982 25.007ZM.168 18.903c16.013 5.113 36.26 19.58 37.034 20.117-17.247-8.002-28.623-9.855-35.654-9.707a65.45 65.45 0 0 0 4.086 13.078c10.952.204 27.26.815 33.39 2.63 0 0-17.634-.444-28.383 6.799a64.532 64.532 0 0 0 5.062 6.853c11.872-4.779 28.07-6.094 28.07-6.094-11.744 3.464-18.59 7.891-22.548 11.93a71.646 71.646 0 0 0 9.056 7.297l16.51-11.762C42.227 64.879 38.73 70.658 36.3 75.511c3.976 2.167 6.608 3.112 6.608 3.112 7.51-5.724 21.48-1.815 21.48-1.815-16.05-17.709-16.05-45.068-16.05-45.068C17.286 23.405.72 2.306.72 2.306-.016 8.252-.164 13.772.168 18.903Z"/>
  <path fill="#fff" d="M4.77 11.68c12.037 9.965 26.063 17.411 40.917 22.135-.276 6.538 1.859 13.133 3.829 19.338.68 2.038 1.454 4.057 2.19 6.095-1.012-1.908-1.933-3.872-2.816-5.854-2.522-6.094-4.841-12.318-4.933-19.042l.607.889c-14.872-4.409-28.99-12.3-39.795-23.562Z"/>
  <path fill="#BF1B2C" d="M67.352 124.339V87.755s-3.369 5.076-7.64 16.023c0 0 2.596-13.67 7.64-21.617 0 0-22.788 11.596-18.628 28.915 0 0 8.54-14.855 12.425-19.023 0 0-8.799 17.967-2.338 22.524l5.559-15.245c.018 0-5.173 19.413 2.981 25.007Z"/>
  <path fill="#fff" d="M49.81 103.074c.497.222 1.03.463 1.546.686 1.141-4.78 3.755-9.41 7.216-12.893a28.447 28.447 0 0 0-8.762 12.207Z"/>
  <path fill="#000" d="M50.657 9.604c-.019.52 6.737-10.688 11.909 2.075 0 0 3.884 10.688-2.062 18.746 0 0-.589-1.482.773-10.021 0 0-2.061 8.724-9.829 11.206 0 0-.276 27.49 17.137 44.42 0 0 17.155-16.801 17.026-44.42 0 0-6.608.908-11.394-7.687 0 0 3.865 1.037 5.301 2.871 0 0 1.38-13.966-7.639-22.654C68.42.806 63.652-.695 58.976.306c-3.938.87-8.19 3.204-8.32 9.298Z"/>
  <path fill="#BB0D1F" d="M68.456 71.992C57.89 60.137 56.05 43.169 55.756 39.298c6.773-1.204 11.411-3.89 12.829-4.798 7.951 3.834 11.854 4.742 13.547 4.927-.939 14.69-10.989 28.99-13.676 32.565Z"/>
  <path fill="#D34D3E" d="M68.658 35.556c6.553 3.13 10.363 4.279 12.498 4.668-1.16 13.096-9.498 25.766-12.755 30.286-9.13-10.874-11.21-25.637-11.652-30.453 5.909-1.185 10.124-3.427 11.91-4.501Zm-.129-2.112s-5.32 3.779-13.73 5.076c0 0 .699 21.098 13.73 34.898 0 0 13.916-17.19 14.578-34.898 0 0-.092.018-.294.018-.994 0-4.657-.407-14.284-5.094Z"/>
  <path fill="#fff" d="m68.53 39.983 1.932 5.983h6.277l-5.08 3.723 1.932 6.002-5.061-3.723-5.08 3.723 1.95-6.002-5.08-3.723h6.277l1.933-5.983Z"/>
</svg>
