<svg width="25" height="24" viewBox="0 0 25 24" fill="none" xmlns="http://www.w3.org/2000/svg">
<path d="M15.175 21.67C19.465 20.54 22.625 16.64 22.625 12C22.625 6.48 18.185 2 12.625 2C5.955 2 2.625 7.56 2.625 7.56M2.625 7.56V3M2.625 7.56H4.635H7.065" stroke="black" stroke-linecap="round" stroke-linejoin="round"/>
<path d="M12.7116 11.2C12.6575 11.1946 12.5927 11.1946 12.5332 11.2C11.2467 11.1567 10.2251 10.1015 10.2251 8.80273C10.2251 7.47691 11.2954 6.40002 12.6251 6.40002C13.9494 6.40002 15.0251 7.47691 15.0251 8.80273C15.0197 10.1015 13.9981 11.1567 12.7116 11.2Z" stroke="black" stroke-linecap="round" stroke-linejoin="round"/>
<path d="M9.68952 13.5641C8.27016 14.4659 8.27016 15.9356 9.68952 16.8318C11.3024 17.8561 13.9476 17.8561 15.5605 16.8318C16.9798 15.93 16.9798 14.4604 15.5605 13.5641C13.9534 12.5454 11.3083 12.5454 9.68952 13.5641Z" stroke="black" stroke-linecap="round" stroke-linejoin="round"/>
<path d="M2.625 12C2.625 17.52 7.105 22 12.625 22" stroke="black" stroke-linecap="round" stroke-linejoin="round" stroke-dasharray="3 3"/>
</svg>
