<svg xmlns="http://www.w3.org/2000/svg" width="16" height="16" fill="none" viewBox="0 0 16 16">
  <path fill="#BF1B2C" d="M11.334 2.333H4.667c-2 0-3.333 1-3.333 3.334v4.666c0 2.334 1.333 3.334 3.333 3.334h6.667c2 0 3.333-1 3.333-3.334V5.667c0-2.334-1.333-3.334-3.333-3.334Zm.313 4.06L9.56 8.06c-.44.353-1 .527-1.56.527s-1.127-.174-1.56-.527L4.353 6.393a.513.513 0 0 1-.08-.706.499.499 0 0 1 .7-.08L7.06 7.273c.507.407 1.367.407 1.874 0l2.086-1.666a.492.492 0 0 1 .7.08.506.506 0 0 1-.073.706Z"/>
</svg>
