<svg xmlns="http://www.w3.org/2000/svg" width="138" height="162" fill="none" viewBox="0 0 138 162">
  <path fill="#BF1B2C" d="M137.131 18.903c-16.014 5.113-36.261 19.58-37.034 20.117 17.247-8.002 28.622-9.855 35.653-9.707a65.428 65.428 0 0 1-4.086 13.078c-10.952.204-27.26.815-33.39 2.63 0 0 17.634-.444 28.383 6.799a64.478 64.478 0 0 1-5.062 6.853c-11.872-4.779-28.07-6.094-28.07-6.094 11.744 3.464 18.591 7.891 22.549 11.93a71.708 71.708 0 0 1-9.057 7.297l-16.51-11.762c4.565 4.835 8.062 10.614 10.492 15.467-3.976 2.167-6.608 3.112-6.608 3.112-7.51-5.724-21.48-1.815-21.48-1.815C88.96 59.099 88.96 31.74 88.96 31.74c31.051-8.335 47.617-29.434 47.617-29.434.737 5.946.884 11.466.553 16.597Z"/>
  <path fill="#fff" d="M132.529 11.68c-10.805 11.261-24.922 19.134-39.795 23.58l.608-.89c-.093 6.743-2.412 12.948-4.933 19.043-.884 1.982-1.804 3.945-2.817 5.853.737-2.038 1.51-4.057 2.19-6.094 1.97-6.206 4.105-12.819 3.83-19.339 14.853-4.723 28.879-12.17 40.917-22.154Z"/>
  <path fill="#000" d="M69.928 124.339V87.755s3.369 5.076 7.64 16.023c0 0-2.596-13.67-7.64-21.617 0 0 22.788 11.596 18.628 28.915 0 0-8.54-14.855-12.425-19.023 0 0 8.799 17.968 2.338 22.524L72.91 99.332s5.172 19.413-2.982 25.007ZM.168 18.903c16.013 5.113 36.26 19.58 37.034 20.117-17.247-8.002-28.623-9.855-35.654-9.707a65.45 65.45 0 0 0 4.086 13.078c10.952.204 27.26.815 33.39 2.63 0 0-17.634-.444-28.383 6.799a64.532 64.532 0 0 0 5.062 6.853c11.872-4.779 28.07-6.094 28.07-6.094-11.744 3.464-18.59 7.891-22.548 11.93a71.646 71.646 0 0 0 9.056 7.297l16.51-11.762C42.227 64.879 38.73 70.658 36.3 75.511c3.976 2.167 6.608 3.112 6.608 3.112 7.51-5.724 21.48-1.815 21.48-1.815-16.05-17.709-16.05-45.068-16.05-45.068C17.286 23.405.72 2.306.72 2.306-.016 8.252-.164 13.772.168 18.903Z"/>
  <path fill="#fff" d="M4.77 11.68c12.037 9.965 26.063 17.411 40.917 22.135-.276 6.538 1.859 13.133 3.829 19.338.68 2.038 1.454 4.057 2.19 6.095-1.012-1.908-1.933-3.872-2.816-5.854-2.522-6.094-4.841-12.318-4.933-19.042l.607.889c-14.872-4.409-28.99-12.3-39.795-23.562Z"/>
  <path fill="#BF1B2C" d="M67.352 124.339V87.755s-3.369 5.076-7.64 16.023c0 0 2.596-13.67 7.64-21.617 0 0-22.788 11.596-18.628 28.915 0 0 8.54-14.855 12.425-19.023 0 0-8.799 17.967-2.338 22.524l5.559-15.245c.018 0-5.173 19.413 2.981 25.007Z"/>
  <path fill="#fff" d="M49.81 103.074c.497.222 1.03.463 1.546.686 1.141-4.78 3.755-9.41 7.216-12.893a28.447 28.447 0 0 0-8.762 12.207Z"/>
  <path fill="#000" d="M50.657 9.604c-.019.52 6.737-10.688 11.909 2.075 0 0 3.884 10.688-2.062 18.746 0 0-.589-1.482.773-10.021 0 0-2.061 8.724-9.829 11.206 0 0-.276 27.49 17.137 44.42 0 0 17.155-16.801 17.026-44.42 0 0-6.608.908-11.394-7.687 0 0 3.865 1.037 5.301 2.871 0 0 1.38-13.966-7.639-22.654C68.42.806 63.652-.695 58.976.306c-3.938.87-8.19 3.204-8.32 9.298Z"/>
  <path fill="#BB0D1F" d="M68.456 71.992C57.89 60.137 56.05 43.169 55.756 39.298c6.773-1.204 11.411-3.89 12.829-4.798 7.951 3.834 11.854 4.742 13.547 4.927-.939 14.69-10.989 28.99-13.676 32.565Z"/>
  <path fill="#D34D3E" d="M68.658 35.556c6.553 3.13 10.363 4.279 12.498 4.668-1.16 13.096-9.498 25.766-12.755 30.286-9.13-10.874-11.21-25.637-11.652-30.453 5.909-1.185 10.124-3.427 11.91-4.501Zm-.129-2.112s-5.32 3.779-13.73 5.076c0 0 .699 21.098 13.73 34.898 0 0 13.916-17.19 14.578-34.898 0 0-.092.018-.294.018-.994 0-4.657-.407-14.284-5.094Z"/>
  <path fill="#fff" d="m68.53 39.983 1.932 5.983h6.277l-5.08 3.723 1.932 6.002-5.061-3.723-5.08 3.723 1.95-6.002-5.08-3.723h6.277l1.933-5.983Z"/>
  <path fill="#000" d="M53.285 138.64c0 1.898-.615 3.439-1.846 4.622-1.23 1.183-2.788 1.774-4.675 1.774-1.886 0-3.43-.591-4.66-1.774-1.231-1.183-1.846-2.724-1.846-4.622 0-1.899.615-3.426 1.831-4.581 1.217-1.142 2.775-1.72 4.675-1.72s3.472.578 4.689 1.72c1.217 1.155 1.832 2.668 1.832 4.581Zm-3.103 0c0-1.06-.315-1.94-.957-2.642-.643-.687-1.463-1.031-2.474-1.031-.998 0-1.818.344-2.46 1.031-.643.688-.958 1.569-.958 2.642 0 1.086.315 1.98.957 2.682.643.702 1.45 1.059 2.46 1.059.999 0 1.832-.357 2.475-1.059.642-.702.957-1.596.957-2.682Zm14.79 6.066h-3.376l-2.584-4.773h-.984v4.773h-2.843v-12.037h4.565a7.34 7.34 0 0 1 1.695.193c.52.124.998.316 1.45.591.45.276.806.647 1.052 1.142a3.79 3.79 0 0 1 .383 1.72c0 .798-.22 1.472-.657 2.036-.437.564-1.052.976-1.831 1.21l3.13 5.145Zm-3.5-8.35c0-.894-.642-1.348-1.927-1.348h-1.53v2.806h1.366c1.395 0 2.092-.481 2.092-1.458Zm7.833 8.35h-2.911v-12.037h2.911v12.037Zm14.941-6.066c0 1.898-.615 3.439-1.846 4.622-1.23 1.183-2.788 1.774-4.674 1.774-1.887 0-3.431-.591-4.662-1.774-1.23-1.183-1.845-2.724-1.845-4.622 0-1.899.615-3.426 1.832-4.581 1.216-1.156 2.775-1.72 4.675-1.72s3.472.578 4.688 1.72c1.217 1.155 1.832 2.668 1.832 4.581Zm-3.103 0c0-1.06-.314-1.94-.957-2.642-.642-.687-1.463-1.031-2.46-1.031-.998 0-1.819.344-2.46 1.031-.63.688-.958 1.569-.958 2.642 0 1.086.315 1.98.957 2.682.642.702 1.463 1.059 2.46 1.059.998 0 1.819-.357 2.461-1.059.642-.702.957-1.596.957-2.682Zm15.897 6.066h-3.28l-4.812-7.868h-.054l.068 7.868H86.16v-12.037h3.294l4.798 7.855h.055l-.069-7.855h2.802v12.037Z"/>
  <path fill="#BB0D1F" d="m17.587 151.357-1.627 1.719c-.205-.275-.492-.481-.833-.66a2.444 2.444 0 0 0-1.04-.248 2.11 2.11 0 0 0-1.038.248c-.3.165-.438.44-.438.812 0 .165.041.316.11.44a.927.927 0 0 0 .355.33c.164.096.328.179.479.234.164.069.382.137.683.234.383.124.684.234.902.316.219.083.492.207.834.399a2.9 2.9 0 0 1 .793.578c.191.206.355.468.506.798.15.33.218.701.218 1.1 0 1.142-.382 2.022-1.162 2.628-.779.605-1.736.908-2.856.908-.766 0-1.49-.138-2.201-.399-.711-.275-1.285-.647-1.736-1.128l1.667-1.706a2.9 2.9 0 0 0 1.026.811c.423.207.834.317 1.257.317.424 0 .78-.096 1.053-.275.273-.179.41-.482.41-.881a.858.858 0 0 0-.11-.426 1.137 1.137 0 0 0-.246-.316 1.767 1.767 0 0 0-.478-.276c-.232-.096-.424-.178-.574-.233l-.78-.262a7.162 7.162 0 0 1-.997-.399 4.808 4.808 0 0 1-.834-.55 2.393 2.393 0 0 1-.642-.867c-.15-.344-.22-.756-.22-1.21 0-.564.124-1.059.356-1.5.233-.44.56-.798.957-1.045.396-.248.834-.44 1.299-.578a5.165 5.165 0 0 1 1.462-.192c.616 0 1.23.11 1.846.33a4.452 4.452 0 0 1 1.599.949Zm11.564 9.56h-2.83l-.82-2.077h-4.073l-.779 2.077h-2.748l4.416-10.592h2.474l4.36 10.592Zm-4.346-4.126-1.313-3.632-1.34 3.632h2.652Zm12.152-4.279H32.54v2.188h4.074v2.104H32.54v4.113h-2.515v-10.592h6.93v2.187Zm8.98 8.405h-7.34v-10.592h7.08v2.174h-4.62v1.994h4.375v2.05h-4.375v2.201h4.894v2.173h-.014Zm11.018-.646c-1.162.605-2.515.908-4.06.908-1.695 0-3.076-.523-4.155-1.555-1.08-1.031-1.627-2.379-1.627-4.03 0-1.665.547-3.013 1.627-4.031 1.08-1.018 2.447-1.527 4.087-1.527.806 0 1.585.124 2.31.385.724.262 1.312.592 1.75 1.032l-1.6 1.843c-.56-.66-1.353-.99-2.364-.99-.889 0-1.627.316-2.215.949-.588.633-.875 1.417-.875 2.366 0 1.005.287 1.802.848 2.421.56.619 1.353.922 2.364.922.63 0 1.149-.096 1.586-.289v-1.926h-2.01v-2.063h4.348v5.585h-.014Zm11.004-3.343c0 1.279-.41 2.311-1.244 3.095-.82.784-1.928 1.183-3.294 1.183-1.367 0-2.46-.385-3.267-1.169-.807-.784-1.217-1.816-1.217-3.109v-6.603h2.529v6.383c0 .633.164 1.156.492 1.568.328.413.82.619 1.49.619s1.176-.206 1.49-.619c.314-.412.478-.935.478-1.568v-6.383h2.543v6.603Zm11.741 3.989h-2.829l-.82-2.077h-4.073l-.78 2.077h-2.76l4.415-10.592h2.474l4.374 10.592Zm-4.332-4.126-1.313-3.632-1.34 3.632h2.653Zm13.819 4.126h-2.966l-2.269-4.209h-.861v4.209h-2.502v-10.592h4.02c.532 0 1.024.055 1.49.165.45.11.888.289 1.284.523.397.234.71.578.93 1.004.218.427.328.936.328 1.513 0 .702-.192 1.293-.575 1.802-.382.496-.915.853-1.599 1.06l2.72 4.525Zm-3.075-7.345c0-.784-.56-1.183-1.695-1.183h-1.353v2.462h1.202c1.23.014 1.846-.426 1.846-1.279Zm14.148 2.022c0 .894-.164 1.692-.506 2.393a4.481 4.481 0 0 1-1.367 1.679 6.777 6.777 0 0 1-1.886.949 7.469 7.469 0 0 1-2.16.316h-3.923v-10.592h3.8c.629 0 1.216.055 1.777.151.56.11 1.107.289 1.626.55.52.262.985.578 1.354.977.383.385.683.894.916 1.5.232.605.369 1.293.369 2.077Zm-2.652 0c0-.564-.096-1.059-.287-1.472a2.376 2.376 0 0 0-.78-.963 3.202 3.202 0 0 0-1.08-.495 5.362 5.362 0 0 0-1.284-.152h-1.258v6.191h1.203c1.025 0 1.86-.248 2.515-.729.656-.496.97-1.28.97-2.38Zm6.889 5.323h-2.556v-10.592h2.556v10.592Zm11.742 0h-2.884l-4.238-6.919h-.041l.055 6.919h-2.46v-10.592h2.897l4.224 6.906h.041l-.054-6.906h2.46v10.592Zm11.523-.646c-1.161.605-2.515.908-4.059.908-1.695 0-3.076-.523-4.156-1.555-1.08-1.031-1.627-2.379-1.627-4.03 0-1.665.547-3.013 1.627-4.031 1.08-1.018 2.447-1.527 4.074-1.527.806 0 1.585.124 2.31.385.724.262 1.312.592 1.749 1.032l-1.599 1.843c-.56-.66-1.353-.99-2.365-.99-.888 0-1.626.316-2.214.949-.588.633-.875 1.417-.875 2.366 0 1.005.287 1.802.848 2.421.56.619 1.353.922 2.364.922.629 0 1.149-.096 1.586-.289v-1.926h-2.009v-2.063h4.333v5.585h.013Z"/>
</svg>
