<svg xmlns="http://www.w3.org/2000/svg" width="33" height="33" fill="none" viewBox="0 0 33 33">
  <path stroke="#BF1B2C" stroke-linecap="round" stroke-linejoin="round" stroke-width="1.5" d="M16 16a6.667 6.667 0 1 0 0-13.333A6.667 6.667 0 0 0 16 16ZM4.547 29.333C4.547 24.173 9.68 20 16 20c1.28 0 2.52.173 3.68.493"/>
  <path stroke="#BF1B2C" stroke-linecap="round" stroke-linejoin="round" stroke-miterlimit="10" stroke-width="1.5" d="M24.947 27.453a2.12 2.12 0 1 0 0-4.24 2.12 2.12 0 0 0 0 4.24Z"/>
  <path stroke="#BF1B2C" stroke-linecap="round" stroke-linejoin="round" stroke-miterlimit="10" stroke-width="1.5" d="M17.88 25.947v-1.24c0-.734.6-1.334 1.334-1.334 1.28 0 1.8-.906 1.16-2.013a1.332 1.332 0 0 1 .493-1.827l1.213-.706a1.18 1.18 0 0 1 1.614.426l.08.134c.64 1.106 1.68 1.106 2.32 0l.08-.134a1.192 1.192 0 0 1 1.613-.426l1.213.706c.64.374.867 1.187.494 1.827-.64 1.107-.12 2.013 1.16 2.013.733 0 1.333.6 1.333 1.334v1.24c0 .733-.6 1.333-1.333 1.333-1.28 0-1.8.907-1.16 2.013.373.64.146 1.467-.494 1.827l-1.213.707a1.18 1.18 0 0 1-1.613-.427l-.08-.133c-.64-1.107-1.68-1.107-2.32 0l-.08.133a1.192 1.192 0 0 1-1.614.427l-1.213-.707a1.335 1.335 0 0 1-.493-1.827c.64-1.106.12-2.013-1.16-2.013a1.32 1.32 0 0 1-1.334-1.333Z"/>
</svg>
