<svg width="22" height="20" viewBox="0 0 22 20" fill="none" xmlns="http://www.w3.org/2000/svg">
<path d="M19.705 6.01002L13.155 0.770018C11.875 -0.249982 9.87496 -0.259982 8.60496 0.760018L2.05496 6.01002C1.11496 6.76002 0.544963 8.26002 0.744963 9.44002L2.00496 16.98C2.29496 18.67 3.86496 20 5.57496 20H16.175C17.865 20 19.465 18.64 19.755 16.97L21.015 9.43002C21.195 8.26002 20.625 6.76002 19.705 6.01002ZM11.625 16C11.625 16.41 11.285 16.75 10.875 16.75C10.465 16.75 10.125 16.41 10.125 16V13C10.125 12.59 10.465 12.25 10.875 12.25C11.285 12.25 11.625 12.59 11.625 13V16Z" fill="#BF1B2C"/>
</svg>
