<svg width="25" height="24" viewBox="0 0 25 24" fill="none" xmlns="http://www.w3.org/2000/svg">
<path d="M2.125 10.5033V14.2717C2.125 16.1559 3.0671 17.098 4.95129 17.098H6.2985C6.64707 17.098 6.99565 17.2017 7.29712 17.3807L10.048 19.1047C12.4221 20.5932 14.3723 19.5098 14.3723 16.7118V8.06331C14.3723 5.25586 12.4221 4.18187 10.048 5.67038L7.29712 7.39442C6.99565 7.57342 6.64707 7.67705 6.2985 7.67705H4.95129C3.0671 7.67705 2.125 8.61915 2.125 10.5033Z" stroke="black"/>
<path d="M16.9303 2.84689L19.0304 1.00006" stroke="black" stroke-linecap="round"/>
<path d="M17.3615 6.29808L19.9411 5.21774" stroke="black" stroke-linecap="round"/>
<path d="M17.3668 15.0775L19.9899 16.0472" stroke="black" stroke-linecap="round"/>
<path d="M17.0997 19.6408L19.111 21.5841" stroke="black" stroke-linecap="round"/>
<path d="M17.8623 10.47L20.4455 10.47" stroke="black" stroke-linecap="round"/>
</svg>
